<?xml version="1.0" encoding="utf-8"?>
<!-- Generator: Adobe Illustrator 16.0.0, SVG Export Plug-In . SVG Version: 6.00 Build 0)  -->
<!DOCTYPE svg PUBLIC "-//W3C//DTD SVG 1.1//EN" "http://www.w3.org/Graphics/SVG/1.1/DTD/svg11.dtd">
<svg version="1.1" id="termometro" xmlns="http://www.w3.org/2000/svg" xmlns:xlink="http://www.w3.org/1999/xlink" x="0px" y="0px"
	 width="38px" height="100px" viewBox="83 61 38 100" enable-background="new 83 61 38 100" xml:space="preserve">
<path id="contenitore" fill="#FFFFFF" d="M102,67.738c3.309,0,6,2.691,6,6v42.101c3.66,2.116,6,6.059,6,10.383
	c0,6.617-5.383,12-12,12c-6.616,0-12-5.383-12-12c0-4.324,2.341-8.267,6-10.383V73.738C96,70.43,98.692,67.738,102,67.738
	 M102,64.738c-4.962,0-9,4.038-9,9v40.495c-3.739,2.812-6,7.259-6,11.989c0,8.271,6.729,15,15,15s15-6.729,15-15
	c0-4.73-2.261-9.178-6-11.989V73.738C111,68.776,106.963,64.738,102,64.738L102,64.738z"/>
<g id="mercurio">
	<path fill="#FF0000" d="M105,117.745V80.738c0-1.656-1.344-3-3-3s-3,1.344-3,3v37.007c-3.493,1.236-6,4.56-6,8.477
		c0,4.971,4.029,9,9,9s9-4.029,9-9C111,122.305,108.493,118.981,105,117.745z"/>
</g>
<polygon id="triangolo" fill="#FFFFFF" points="94.406,149.426 109.594,149.426 102,157.762 "/>
</svg>
