<!-- Generated by IcoMoon.io -->
<svg version="1.1" xmlns="http://www.w3.org/2000/svg" width="8862" height="1024" viewBox="0 0 8862 1024">
<title></title>
<g id="icomoon-ignore">
</g>
<path fill="#056433" d="M3105.874 46.769h-237.993v651.144c-73.509 7.463-217.934 18.627-429.859 18.627-152.911 0-294.284-7.151-431.15-20.986 0.153-84.090 1.315-648.784 1.315-648.784h-290.446v876.677l39.038 10.026c9.308 2.408 233.239 58.491 681.243 58.491 456.021 1.689 671.772-56.204 680.739-58.695l38.169-10.541v-875.958h-51.056z"></path>
<path fill="#056433" d="M3436.954 115.408l-1.471 808.516 40.036 9.715c9.597 2.312 239.208 56.564 679.807 58.361 438.226 0 667.957-54.372 677.494-56.708l39.941-9.631v-282.798l-64.022 16.603c-2.289 0.611-227.903 58.637-654.682 58.637-210.928 0-353.124-10.35-427.716-18.22v-359.247c94.177-10.17 235.531-20.196 427.811-20.196 415.581 0 653.994 58.313 656.355 58.924l64.165 15.98-0.534-68.903-1.708-211.176-38.968-9.942c-9.336-2.372-234.368-58.553-679.309-58.553-444.858 0-668.692 56.181-677.992 58.553l-39.206 10.086z"></path>
<path fill="#056433" d="M5199.649 117.7v806.132l39.754 9.757c9.395 2.332 234.461 56.617 679.651 58.411 440.13 0 670.077-54.274 679.734-56.606l40.051-9.59v-810.557l-39.362-10.080c-9.312-2.356-233.38-58.399-680.221-58.399-456.426 0-672.12 57.897-681.088 60.36l-38.519 10.57zM6352.366 317.361v-1.554l-2.364 410.587c-94.283 10.821-235.114 23.257-432.065 23.257-223.201 0-381.99-17.111-434.572-23.257l1.223-410.587c48.971-6.242 195.788-23.376 433.348-23.376 194.624 0 337.782 12.471 434.429 24.931z"></path>
<path fill="#056433" d="M1111.498 105.82c0 0-0.094 132.061-0.094 227.352-99.186-53.547-215.088-102.132-393.618-152.288-439.389-123.388-657.981-124.605-667.135-124.605l-50.655 0.071v935.648h288.605v-636.318c69.765 12.394 229.621 48.384 375.109 99.58 256.848 90.4 395.010 189.188 447.977 231.085 0.047 42.11 0.295 290.812 0.295 290.812h318.768v-924.436l-319.252-0.13v53.228z"></path>
<path fill="#056433" d="M8027.485 505.635c-78.939 12.649-877.594 3.345-877.594 3.345v-192.953c48.581-7.261 798.654-12.661 877.594 1.824v187.784zM6870.965 117.164v859.256h266.524v-282.539c72.732-1.374 246.744 0.523 439.63 40.67 227.87 47.384 383.236 114.458 436.466 144.389-0.157 26.72-0.423 113.059-0.423 113.059h295.941l1.051-225.924-16.882-12.308c-4.637-3.381-90.001-64.277-259.254-130.561 148.725-16.018 227.109-35.027 231.444-36.122l29.694-7.468v-462.393l-29.054-7.857c-9.455-2.53-237.325-62.599-681.652-62.599-444.364 0-674.685 60.045-684.249 62.599l-29.235 7.796z"></path>
<path fill="#056433" d="M8808.862 122.256c0-56.022-46.863-101.579-104.862-101.579-58.006 0-104.862 45.554-104.862 101.579s46.856 101.579 104.862 101.579c57.999 0 104.862-45.558 104.862-101.579zM8835.446 122.256c0 70.874-58.93 128.164-131.446 128.164-72.523 0-131.446-57.286-131.446-128.164s58.923-128.164 131.446-128.164c72.516 0 131.446 57.29 131.446 128.164z"></path>
<path fill="#056433" d="M8726.179 129.548c-0.051-0.030-0.102-0.060-0.153-0.089l0.153 0.089zM8726.179 129.548c4.803 2.818 8.774 5.909 11.912 9.273 3.172 3.4 7.447 9.439 12.826 18.116l13.625 21.77h-26.946l-16.289-24.282c-5.785-8.678-9.743-14.145-11.875-16.404s-4.39-3.806-6.775-4.643c-2.385-0.837-6.166-1.256-11.342-1.256h-4.567v46.585h-22.531v-111.59h47.422c11.925 0 20.59 1.002 25.995 3.007s9.731 5.569 12.978 10.695c3.248 5.125 4.872 10.986 4.872 17.583 0 8.373-2.461 15.287-7.384 20.742s-12.28 8.893-22.074 10.314l0.153 0.089zM8686.749 114.311h16.67c10.809 0 17.558-0.457 20.248-1.37s4.795-2.487 6.318-4.719c1.522-2.233 2.284-5.024 2.284-8.373 0-3.755-1.002-6.787-3.007-9.096s-4.834-3.768-8.487-4.377c-1.827-0.254-7.307-0.381-16.442-0.381h-17.583v28.316z"></path>
</svg>
